<svg><defs><g id="bottomLeft"><path style="line-height:normal;text-indent:0;text-align:start;text-decoration-line:none;text-decoration-style:solid;text-decoration-color:#000;text-transform:none;block-progression:tb;isolation:auto;mix-blend-mode:normal" d="M1.969 3.055a1 1 0 0 1-1 1v16.009a1 1 0 0 1 1 1H21.979a1 1 0 0 1 1-1V4.054a1 1 0 0 1-1-1H1.969zm1 2h18.01v14.01h-9.95c.031-.16.047-.323.047-.489v-5.13c0-1.317-1.022-2.489-2.363-2.489H3.334c-.126 0-.246.02-.365.04V5.054zm.365 7.902h5.379c.17 0 .363.156.363.488v5.131c0 .333-.193.488-.363.488H3.334c-.17 0-.365-.155-.365-.488v-5.13c0-.333.195-.489.365-.489z" color="#000" font-weight="400" font-family="sans-serif" white-space="normal" overflow="visible" fill-rule="evenodd"/></g><g id="bottomRight"><path style="line-height:normal;text-indent:0;text-align:start;text-decoration-line:none;text-decoration-style:solid;text-decoration-color:#000;text-transform:none;block-progression:tb;isolation:auto;mix-blend-mode:normal" d="M21.979 3.055a1 1 0 0 0 1 1v16.009a1 1 0 0 0-1 1H1.969a1 1 0 0 0-1-1V4.054a1 1 0 0 0 1-1h20.01zm-1 2H2.969v14.01h9.949a2.544 2.544 0 0 1-.047-.489v-5.13c0-1.317 1.022-2.489 2.363-2.489h5.38c.125 0 .245.02.365.04V5.054zm-.366 7.902h-5.379c-.17 0-.363.156-.363.488v5.131c0 .333.193.488.363.488h5.38c.17 0 .365-.155.365-.488v-5.13c0-.333-.195-.489-.366-.489z" color="#000" font-weight="400" font-family="sans-serif" white-space="normal" overflow="visible" fill-rule="evenodd"/></g><g id="eraser"><path d="M3.872 12.265l15.35-9.204c.88-.528 1.586-.32 1.586.475V9.57c0 .796.13 1.197-.624 1.675L4.714 20.75c-.875.537-1.587.32-1.587-.475V14.24c0-.796-.137-1.447.745-1.975z" stroke="#fff" stroke-width="1.605" stroke-linecap="round" stroke-linejoin="round"/></g><g id="logo"><path d="M8.716 1C4.442 1 1 1.296 1 1.66v20.68c0 .364 3.442.66 7.716.66h6.568c4.274 0 7.716-.296 7.716-.66V1.66c0-.364-3.442-.66-7.716-.66H8.716zm-5.62 3.03h3.753v2.206H3.096V4.029zm14.407 0h3.715v2.206h-3.715V4.029zM3.135 8.441h3.714v2.207H3.135V8.442zm14.368 0h3.715v2.207h-3.715V8.442zM3.135 12.855h3.714v2.207H3.135v-2.207zm14.368 0h3.715v2.207h-3.715v-2.207zM3.135 17.268h3.714v2.207H3.135v-2.207zm14.368 0h3.715v2.207h-3.715v-2.207z"/></g><g id="nocursor"><path d="M12 2C6.48 2 2 6.48 2 12s4.48 10 10 10 10-4.48 10-10S17.52 2 12 2zm0 2c1.85 0 3.556.627 4.906 1.688l-3.031 3.03-5.094-4.03A7.986 7.986 0 0 1 12 4zM7.312 5.531v9.75l-1.625 1.625A7.918 7.918 0 0 1 4 12c0-2.665 1.31-5.015 3.313-6.469zm11 1.563A7.918 7.918 0 0 1 20 12a7.99 7.99 0 0 1-3.969 6.906l-2.937-6.093 4.437-1.157-2.093-1.687 2.874-2.875zm-7.125 7.125l2.688 5.562c-.6.144-1.231.219-1.875.219a7.918 7.918 0 0 1-4.906-1.688l4.093-4.093z"/></g><g id="pointer"><path d="M6.6 3l-.005 13.82 3.887-2.908L13.89 21l2.216-1.066-3.408-7.087 4.707-1.225z"/></g><g id="topLeft"><path style="line-height:normal;text-indent:0;text-align:start;text-decoration-line:none;text-decoration-style:solid;text-decoration-color:#000;text-transform:none;block-progression:tb;isolation:auto;mix-blend-mode:normal" d="M1.969 21.064a1 1 0 0 0-1-1V4.055a1 1 0 0 0 1-1H21.979a1 1 0 0 0 1 1v16.01a1 1 0 0 0-1 1H1.969zm1-2h18.01V5.054h-9.95c.031.16.047.323.047.489v5.13c0 1.317-1.022 2.49-2.363 2.49H3.334c-.126 0-.246-.02-.365-.04v5.941zm.365-7.902h5.379c.17 0 .363-.156.363-.488V5.543c0-.333-.193-.488-.363-.488H3.334c-.17 0-.365.155-.365.488v5.13c0 .333.195.49.365.49z" color="#000" font-weight="400" font-family="sans-serif" white-space="normal" overflow="visible" fill-rule="evenodd"/></g><g id="topRight"><path style="line-height:normal;text-indent:0;text-align:start;text-decoration-line:none;text-decoration-style:solid;text-decoration-color:#000;text-transform:none;block-progression:tb;isolation:auto;mix-blend-mode:normal" d="M21.979 21.064a1 1 0 0 1 1-1V4.055a1 1 0 0 1-1-1H1.969a1 1 0 0 1-1 1v16.01a1 1 0 0 1 1 1h20.01zm-1-2H2.969V5.054h9.949c-.031.16-.047.323-.047.489v5.13c0 1.317 1.022 2.49 2.363 2.49h5.38c.125 0 .245-.02.365-.04v5.941zm-.366-7.902h-5.379c-.17 0-.363-.156-.363-.488V5.543c0-.333.193-.488.363-.488h5.38c.17 0 .365.155.365.488v5.13c0 .333-.195.49-.366.49z" color="#000" font-weight="400" font-family="sans-serif" white-space="normal" overflow="visible" fill-rule="evenodd"/></g></defs></svg>